<mxfile host="app.diagrams.net" modified="2022-08-16T07:20:22.414Z" agent="5.0 (Windows NT 10.0; Win64; x64) AppleWebKit/537.36 (KHTML, like Gecko) Chrome/104.0.0.0 Safari/537.36" etag="Rj3Bao2J98xHi0R4PbHG" version="20.2.3" type="github">
  <diagram id="x5N0Bp3URwL84eysVLeZ" name="第 1 页">
    <mxGraphModel dx="783" dy="414" grid="0" gridSize="10" guides="1" tooltips="1" connect="1" arrows="1" fold="1" page="1" pageScale="1" pageWidth="1169" pageHeight="827" math="0" shadow="0">
      <root>
        <mxCell id="0" />
        <mxCell id="1" parent="0" />
        <mxCell id="P1yb6FFZFFWO7Coz35kv-2" value="" style="shape=table;html=1;whiteSpace=wrap;startSize=0;container=1;collapsible=0;childLayout=tableLayout;fillColor=#dae8fc;strokeColor=#6c8ebf;" vertex="1" parent="1">
          <mxGeometry x="62" y="45" width="108" height="83" as="geometry" />
        </mxCell>
        <mxCell id="P1yb6FFZFFWO7Coz35kv-3" value="" style="shape=tableRow;horizontal=0;startSize=0;swimlaneHead=0;swimlaneBody=0;top=0;left=0;bottom=0;right=0;collapsible=0;dropTarget=0;fillColor=none;points=[[0,0.5],[1,0.5]];portConstraint=eastwest;" vertex="1" parent="P1yb6FFZFFWO7Coz35kv-2">
          <mxGeometry width="108" height="28" as="geometry" />
        </mxCell>
        <mxCell id="P1yb6FFZFFWO7Coz35kv-4" value="本地view_0" style="shape=partialRectangle;html=1;whiteSpace=wrap;connectable=0;fillColor=none;top=0;left=0;bottom=0;right=0;overflow=hidden;" vertex="1" parent="P1yb6FFZFFWO7Coz35kv-3">
          <mxGeometry width="108" height="28" as="geometry">
            <mxRectangle width="108" height="28" as="alternateBounds" />
          </mxGeometry>
        </mxCell>
        <mxCell id="P1yb6FFZFFWO7Coz35kv-7" value="" style="shape=tableRow;horizontal=0;startSize=0;swimlaneHead=0;swimlaneBody=0;top=0;left=0;bottom=0;right=0;collapsible=0;dropTarget=0;fillColor=none;points=[[0,0.5],[1,0.5]];portConstraint=eastwest;" vertex="1" parent="P1yb6FFZFFWO7Coz35kv-2">
          <mxGeometry y="28" width="108" height="27" as="geometry" />
        </mxCell>
        <mxCell id="P1yb6FFZFFWO7Coz35kv-8" value="本地view_1" style="shape=partialRectangle;html=1;whiteSpace=wrap;connectable=0;fillColor=none;top=0;left=0;bottom=0;right=0;overflow=hidden;" vertex="1" parent="P1yb6FFZFFWO7Coz35kv-7">
          <mxGeometry width="108" height="27" as="geometry">
            <mxRectangle width="108" height="27" as="alternateBounds" />
          </mxGeometry>
        </mxCell>
        <mxCell id="P1yb6FFZFFWO7Coz35kv-11" value="" style="shape=tableRow;horizontal=0;startSize=0;swimlaneHead=0;swimlaneBody=0;top=0;left=0;bottom=0;right=0;collapsible=0;dropTarget=0;fillColor=none;points=[[0,0.5],[1,0.5]];portConstraint=eastwest;" vertex="1" parent="P1yb6FFZFFWO7Coz35kv-2">
          <mxGeometry y="55" width="108" height="28" as="geometry" />
        </mxCell>
        <mxCell id="P1yb6FFZFFWO7Coz35kv-12" value="本地view_n" style="shape=partialRectangle;html=1;whiteSpace=wrap;connectable=0;fillColor=none;top=0;left=0;bottom=0;right=0;overflow=hidden;" vertex="1" parent="P1yb6FFZFFWO7Coz35kv-11">
          <mxGeometry width="108" height="28" as="geometry">
            <mxRectangle width="108" height="28" as="alternateBounds" />
          </mxGeometry>
        </mxCell>
        <mxCell id="P1yb6FFZFFWO7Coz35kv-15" value="" style="shape=table;html=1;whiteSpace=wrap;startSize=0;container=1;collapsible=0;childLayout=tableLayout;fillColor=#d5e8d4;strokeColor=#82b366;" vertex="1" parent="1">
          <mxGeometry x="261" y="45" width="108" height="83" as="geometry" />
        </mxCell>
        <mxCell id="P1yb6FFZFFWO7Coz35kv-16" value="" style="shape=tableRow;horizontal=0;startSize=0;swimlaneHead=0;swimlaneBody=0;top=0;left=0;bottom=0;right=0;collapsible=0;dropTarget=0;fillColor=none;points=[[0,0.5],[1,0.5]];portConstraint=eastwest;" vertex="1" parent="P1yb6FFZFFWO7Coz35kv-15">
          <mxGeometry width="108" height="28" as="geometry" />
        </mxCell>
        <mxCell id="P1yb6FFZFFWO7Coz35kv-18" value="远程view_0" style="shape=partialRectangle;html=1;whiteSpace=wrap;connectable=0;fillColor=none;top=0;left=0;bottom=0;right=0;overflow=hidden;" vertex="1" parent="P1yb6FFZFFWO7Coz35kv-16">
          <mxGeometry width="108" height="28" as="geometry">
            <mxRectangle width="108" height="28" as="alternateBounds" />
          </mxGeometry>
        </mxCell>
        <mxCell id="P1yb6FFZFFWO7Coz35kv-19" value="" style="shape=tableRow;horizontal=0;startSize=0;swimlaneHead=0;swimlaneBody=0;top=0;left=0;bottom=0;right=0;collapsible=0;dropTarget=0;fillColor=none;points=[[0,0.5],[1,0.5]];portConstraint=eastwest;" vertex="1" parent="P1yb6FFZFFWO7Coz35kv-15">
          <mxGeometry y="28" width="108" height="27" as="geometry" />
        </mxCell>
        <mxCell id="P1yb6FFZFFWO7Coz35kv-21" value="远程view_1" style="shape=partialRectangle;html=1;whiteSpace=wrap;connectable=0;fillColor=none;top=0;left=0;bottom=0;right=0;overflow=hidden;" vertex="1" parent="P1yb6FFZFFWO7Coz35kv-19">
          <mxGeometry width="108" height="27" as="geometry">
            <mxRectangle width="108" height="27" as="alternateBounds" />
          </mxGeometry>
        </mxCell>
        <mxCell id="P1yb6FFZFFWO7Coz35kv-22" value="" style="shape=tableRow;horizontal=0;startSize=0;swimlaneHead=0;swimlaneBody=0;top=0;left=0;bottom=0;right=0;collapsible=0;dropTarget=0;fillColor=none;points=[[0,0.5],[1,0.5]];portConstraint=eastwest;" vertex="1" parent="P1yb6FFZFFWO7Coz35kv-15">
          <mxGeometry y="55" width="108" height="28" as="geometry" />
        </mxCell>
        <mxCell id="P1yb6FFZFFWO7Coz35kv-24" value="远程view_n" style="shape=partialRectangle;html=1;whiteSpace=wrap;connectable=0;fillColor=none;top=0;left=0;bottom=0;right=0;overflow=hidden;" vertex="1" parent="P1yb6FFZFFWO7Coz35kv-22">
          <mxGeometry width="108" height="28" as="geometry">
            <mxRectangle width="108" height="28" as="alternateBounds" />
          </mxGeometry>
        </mxCell>
        <mxCell id="P1yb6FFZFFWO7Coz35kv-26" value="" style="shape=curlyBracket;whiteSpace=wrap;html=1;rounded=1;direction=north;" vertex="1" parent="1">
          <mxGeometry x="109" y="131" width="208" height="23" as="geometry" />
        </mxCell>
        <mxCell id="P1yb6FFZFFWO7Coz35kv-28" style="edgeStyle=orthogonalEdgeStyle;rounded=0;orthogonalLoop=1;jettySize=auto;html=1;" edge="1" parent="1" source="P1yb6FFZFFWO7Coz35kv-27">
          <mxGeometry relative="1" as="geometry">
            <mxPoint x="213.5" y="202.09090870824355" as="targetPoint" />
          </mxGeometry>
        </mxCell>
        <mxCell id="P1yb6FFZFFWO7Coz35kv-27" value="确认唯一标识，执行myers" style="rounded=1;whiteSpace=wrap;html=1;fillColor=#f8cecc;strokeColor=#b85450;" vertex="1" parent="1">
          <mxGeometry x="133" y="151" width="162" height="27" as="geometry" />
        </mxCell>
        <mxCell id="P1yb6FFZFFWO7Coz35kv-29" value="" style="shape=table;html=1;whiteSpace=wrap;startSize=0;container=1;collapsible=0;childLayout=tableLayout;fillColor=#f8cecc;strokeColor=#b85450;" vertex="1" parent="1">
          <mxGeometry x="153" y="205" width="126" height="108" as="geometry" />
        </mxCell>
        <mxCell id="P1yb6FFZFFWO7Coz35kv-30" value="" style="shape=tableRow;horizontal=0;startSize=0;swimlaneHead=0;swimlaneBody=0;top=0;left=0;bottom=0;right=0;collapsible=0;dropTarget=0;fillColor=none;points=[[0,0.5],[1,0.5]];portConstraint=eastwest;" vertex="1" parent="P1yb6FFZFFWO7Coz35kv-29">
          <mxGeometry width="126" height="27" as="geometry" />
        </mxCell>
        <mxCell id="P1yb6FFZFFWO7Coz35kv-31" value="action_add" style="shape=partialRectangle;html=1;whiteSpace=wrap;connectable=0;fillColor=none;top=0;left=0;bottom=0;right=0;overflow=hidden;" vertex="1" parent="P1yb6FFZFFWO7Coz35kv-30">
          <mxGeometry width="126" height="27" as="geometry">
            <mxRectangle width="126" height="27" as="alternateBounds" />
          </mxGeometry>
        </mxCell>
        <mxCell id="P1yb6FFZFFWO7Coz35kv-34" value="" style="shape=tableRow;horizontal=0;startSize=0;swimlaneHead=0;swimlaneBody=0;top=0;left=0;bottom=0;right=0;collapsible=0;dropTarget=0;fillColor=none;points=[[0,0.5],[1,0.5]];portConstraint=eastwest;" vertex="1" parent="P1yb6FFZFFWO7Coz35kv-29">
          <mxGeometry y="27" width="126" height="27" as="geometry" />
        </mxCell>
        <mxCell id="P1yb6FFZFFWO7Coz35kv-35" value="action_delete" style="shape=partialRectangle;html=1;whiteSpace=wrap;connectable=0;fillColor=none;top=0;left=0;bottom=0;right=0;overflow=hidden;" vertex="1" parent="P1yb6FFZFFWO7Coz35kv-34">
          <mxGeometry width="126" height="27" as="geometry">
            <mxRectangle width="126" height="27" as="alternateBounds" />
          </mxGeometry>
        </mxCell>
        <mxCell id="P1yb6FFZFFWO7Coz35kv-38" value="" style="shape=tableRow;horizontal=0;startSize=0;swimlaneHead=0;swimlaneBody=0;top=0;left=0;bottom=0;right=0;collapsible=0;dropTarget=0;fillColor=none;points=[[0,0.5],[1,0.5]];portConstraint=eastwest;" vertex="1" parent="P1yb6FFZFFWO7Coz35kv-29">
          <mxGeometry y="54" width="126" height="27" as="geometry" />
        </mxCell>
        <mxCell id="P1yb6FFZFFWO7Coz35kv-39" value="action_update" style="shape=partialRectangle;html=1;whiteSpace=wrap;connectable=0;fillColor=none;top=0;left=0;bottom=0;right=0;overflow=hidden;" vertex="1" parent="P1yb6FFZFFWO7Coz35kv-38">
          <mxGeometry width="126" height="27" as="geometry">
            <mxRectangle width="126" height="27" as="alternateBounds" />
          </mxGeometry>
        </mxCell>
        <mxCell id="P1yb6FFZFFWO7Coz35kv-42" style="shape=tableRow;horizontal=0;startSize=0;swimlaneHead=0;swimlaneBody=0;top=0;left=0;bottom=0;right=0;collapsible=0;dropTarget=0;fillColor=none;points=[[0,0.5],[1,0.5]];portConstraint=eastwest;" vertex="1" parent="P1yb6FFZFFWO7Coz35kv-29">
          <mxGeometry y="81" width="126" height="27" as="geometry" />
        </mxCell>
        <mxCell id="P1yb6FFZFFWO7Coz35kv-43" value="action_unmodified" style="shape=partialRectangle;html=1;whiteSpace=wrap;connectable=0;fillColor=none;top=0;left=0;bottom=0;right=0;overflow=hidden;" vertex="1" parent="P1yb6FFZFFWO7Coz35kv-42">
          <mxGeometry width="126" height="27" as="geometry">
            <mxRectangle width="126" height="27" as="alternateBounds" />
          </mxGeometry>
        </mxCell>
        <mxCell id="P1yb6FFZFFWO7Coz35kv-44" style="edgeStyle=orthogonalEdgeStyle;rounded=0;orthogonalLoop=1;jettySize=auto;html=1;" edge="1" parent="1" source="P1yb6FFZFFWO7Coz35kv-30">
          <mxGeometry relative="1" as="geometry">
            <mxPoint x="304.63503502155186" y="218.5" as="targetPoint" />
          </mxGeometry>
        </mxCell>
        <mxCell id="P1yb6FFZFFWO7Coz35kv-45" value="" style="shape=table;html=1;whiteSpace=wrap;startSize=0;container=1;collapsible=0;childLayout=tableLayout;" vertex="1" parent="1">
          <mxGeometry x="308" y="190" width="180" height="55" as="geometry" />
        </mxCell>
        <mxCell id="P1yb6FFZFFWO7Coz35kv-46" value="" style="shape=tableRow;horizontal=0;startSize=0;swimlaneHead=0;swimlaneBody=0;top=0;left=0;bottom=0;right=0;collapsible=0;dropTarget=0;fillColor=none;points=[[0,0.5],[1,0.5]];portConstraint=eastwest;" vertex="1" parent="P1yb6FFZFFWO7Coz35kv-45">
          <mxGeometry width="180" height="28" as="geometry" />
        </mxCell>
        <mxCell id="P1yb6FFZFFWO7Coz35kv-47" value="远程新增" style="shape=partialRectangle;html=1;whiteSpace=wrap;connectable=0;fillColor=none;top=0;left=0;bottom=0;right=0;overflow=hidden;" vertex="1" parent="P1yb6FFZFFWO7Coz35kv-46">
          <mxGeometry width="90" height="28" as="geometry">
            <mxRectangle width="90" height="28" as="alternateBounds" />
          </mxGeometry>
        </mxCell>
        <mxCell id="P1yb6FFZFFWO7Coz35kv-48" value="" style="shape=partialRectangle;html=1;whiteSpace=wrap;connectable=0;fillColor=none;top=0;left=0;bottom=0;right=0;overflow=hidden;" vertex="1" parent="P1yb6FFZFFWO7Coz35kv-46">
          <mxGeometry x="90" width="90" height="28" as="geometry">
            <mxRectangle width="90" height="28" as="alternateBounds" />
          </mxGeometry>
        </mxCell>
        <mxCell id="P1yb6FFZFFWO7Coz35kv-50" value="" style="shape=tableRow;horizontal=0;startSize=0;swimlaneHead=0;swimlaneBody=0;top=0;left=0;bottom=0;right=0;collapsible=0;dropTarget=0;fillColor=none;points=[[0,0.5],[1,0.5]];portConstraint=eastwest;" vertex="1" parent="P1yb6FFZFFWO7Coz35kv-45">
          <mxGeometry y="28" width="180" height="27" as="geometry" />
        </mxCell>
        <mxCell id="P1yb6FFZFFWO7Coz35kv-51" value="本地删除" style="shape=partialRectangle;html=1;whiteSpace=wrap;connectable=0;fillColor=none;top=0;left=0;bottom=0;right=0;overflow=hidden;" vertex="1" parent="P1yb6FFZFFWO7Coz35kv-50">
          <mxGeometry width="90" height="27" as="geometry">
            <mxRectangle width="90" height="27" as="alternateBounds" />
          </mxGeometry>
        </mxCell>
        <mxCell id="P1yb6FFZFFWO7Coz35kv-52" value="" style="shape=partialRectangle;html=1;whiteSpace=wrap;connectable=0;fillColor=none;top=0;left=0;bottom=0;right=0;overflow=hidden;" vertex="1" parent="P1yb6FFZFFWO7Coz35kv-50">
          <mxGeometry x="90" width="90" height="27" as="geometry">
            <mxRectangle width="90" height="27" as="alternateBounds" />
          </mxGeometry>
        </mxCell>
        <mxCell id="P1yb6FFZFFWO7Coz35kv-58" style="edgeStyle=orthogonalEdgeStyle;rounded=0;orthogonalLoop=1;jettySize=auto;html=1;entryX=0;entryY=0.5;entryDx=0;entryDy=0;" edge="1" parent="1" source="P1yb6FFZFFWO7Coz35kv-7" target="P1yb6FFZFFWO7Coz35kv-19">
          <mxGeometry relative="1" as="geometry" />
        </mxCell>
        <mxCell id="P1yb6FFZFFWO7Coz35kv-59" value="diff" style="text;html=1;strokeColor=none;fillColor=none;align=center;verticalAlign=middle;whiteSpace=wrap;rounded=0;" vertex="1" parent="1">
          <mxGeometry x="183" y="62" width="60" height="30" as="geometry" />
        </mxCell>
      </root>
    </mxGraphModel>
  </diagram>
</mxfile>
